<svg xmlns="http://www.w3.org/2000/svg" viewBox="0 0 800 480" preserveAspectRatio="xMidYMid slice" aria-label="library stacks">
  <style>
    @keyframes library_stacks_sweep { from { transform: translateX(-80px); } to { transform: translateX(820px); } }
    .ls-sweep { animation: library_stacks_sweep 14s linear infinite; }
  </style>
  <rect width="800" height="480" fill="#0B0B0D"/>
  <g>
    <rect x="40"  y="60" width="18" height="360" fill="#E8A33D" opacity=".72"/>
    <rect x="66"  y="90" width="14" height="330" fill="#F4EFE6" opacity=".65"/>
    <rect x="88"  y="70" width="20" height="350" fill="#E8A33D" opacity=".55"/>
    <rect x="116" y="100" width="12" height="320" fill="#F4EFE6" opacity=".7"/>
    <rect x="136" y="80" width="22" height="340" fill="#E8A33D" opacity=".6"/>
    <rect x="166" y="110" width="14" height="310" fill="#F4EFE6" opacity=".55"/>
    <rect x="188" y="74" width="18" height="346" fill="#E8A33D" opacity=".7"/>
    <rect x="214" y="96" width="16" height="324" fill="#F4EFE6" opacity=".6"/>
    <rect x="238" y="84" width="20" height="336" fill="#E8A33D" opacity=".5"/>
    <rect x="266" y="104" width="14" height="316" fill="#F4EFE6" opacity=".72"/>
    <rect x="288" y="78" width="18" height="342" fill="#E8A33D" opacity=".62"/>
    <rect x="314" y="94" width="20" height="326" fill="#F4EFE6" opacity=".5"/>
    <rect x="342" y="80" width="16" height="340" fill="#E8A33D" opacity=".7"/>
    <rect x="366" y="108" width="18" height="312" fill="#F4EFE6" opacity=".6"/>
    <rect x="392" y="72" width="14" height="348" fill="#E8A33D" opacity=".58"/>
    <rect x="414" y="98" width="22" height="322" fill="#F4EFE6" opacity=".68"/>
    <rect x="444" y="84" width="16" height="336" fill="#E8A33D" opacity=".5"/>
    <rect x="468" y="102" width="18" height="318" fill="#F4EFE6" opacity=".62"/>
    <rect x="494" y="76" width="20" height="344" fill="#E8A33D" opacity=".7"/>
    <rect x="522" y="92" width="14" height="328" fill="#F4EFE6" opacity=".55"/>
    <rect x="544" y="86" width="18" height="334" fill="#E8A33D" opacity=".65"/>
    <rect x="570" y="100" width="16" height="320" fill="#F4EFE6" opacity=".7"/>
    <rect x="594" y="78" width="22" height="342" fill="#E8A33D" opacity=".55"/>
    <rect x="624" y="106" width="14" height="314" fill="#F4EFE6" opacity=".6"/>
    <rect x="646" y="82" width="18" height="338" fill="#E8A33D" opacity=".68"/>
    <rect x="672" y="96" width="20" height="324" fill="#F4EFE6" opacity=".5"/>
    <rect x="700" y="88" width="16" height="332" fill="#E8A33D" opacity=".72"/>
    <rect x="724" y="104" width="18" height="316" fill="#F4EFE6" opacity=".55"/>
    <rect x="750" y="78" width="12" height="342" fill="#E8A33D" opacity=".65"/>
  </g>
  <rect x="-80" y="0" width="36" height="480" fill="#F4EFE6" opacity=".18" class="ls-sweep"/>
  <line x1="40" y1="426" x2="762" y2="426" stroke="#F4EFE6" stroke-width="1" opacity=".35"/>
</svg>
